<?xml version="1.0" encoding="UTF-8"?>
<svg width="500px" height="500px" viewBox="0 0 500 500" version="1.1" xmlns="http://www.w3.org/2000/svg" xmlns:xlink="http://www.w3.org/1999/xlink">
    <!-- Generator: Sketch 48.1 (47250) - http://www.bohemiancoding.com/sketch -->
    <title>safari-pinned-tab</title>
    <desc>Created with Sketch.</desc>
    <defs>
        <circle id="path-1" cx="250" cy="250" r="250"></circle>
        <circle id="path-3" cx="250" cy="250" r="250"></circle>
        <circle id="path-5" cx="250" cy="250" r="250"></circle>
        <circle id="path-7" cx="250" cy="250" r="250"></circle>
    </defs>
    <g id="SVG-Playground" stroke="none" stroke-width="1" fill="none" fill-rule="evenodd">
        <g id="safari-pinned-tab">
            <g id="Group" transform="translate(250.000000, 250.000000) scale(-1, 1) rotate(-180.000000) translate(-250.000000, -250.000000) translate(0.000000, -0.000000)">
                <g id="Icon-Dark" transform="translate(250.000000, 250.000000) scale(-1, 1) rotate(-180.000000) translate(-250.000000, -250.000000) ">
                    <g id="Oval-3">
                        <g id="path-2-link" fill="#E56464">
                            <circle id="path-2" cx="250" cy="250" r="250"></circle>
                        </g>
                        <circle id="Oval" stroke="#E56464" stroke-width="2" cx="250" cy="250" r="249"></circle>
                    </g>
                    <g id="Shirt-Clipped">
                        <mask id="mask-2" fill="white">
                            <use xlink:href="#path-1"></use>
                        </mask>
                        <g id="path-2"></g>
                        <g id="Shirt" mask="url(#mask-2)">
                            <g transform="translate(53.000000, 399.000000)" id="Group">
                                <g>
                                    <path d="M0,103 C31.73454,74.0433467 71.73454,40.2633492 120,1.66000757 C136.741183,-5.70742036 152.941176,14.4570153 200,14.4570153 C247.058824,14.4570153 262.979211,-5.83046872 280,1.66000757 C328.26546,40.2633492 368.26546,74.0433467 400,103 L0,103 Z" id="Path-2" fill="#FFFFFF" fill-rule="nonzero"></path>
                                    <path d="M132.320648,6.83835216 C154.880432,14.8508793 177.440216,18.8571429 200,18.8571429 C222.559804,18.8571429 245.119608,14.8508722 267.679412,6.83833077 L267.679425,6.83836751 C268.199839,6.65353263 268.771556,6.92557326 268.956391,7.44598725 C269.04684,7.70065181 269.03036,7.98108311 268.910705,8.22340044 C245.94047,54.7411335 222.970235,78 200,78 C177.029773,78 154.059545,54.7411489 131.089318,8.22344683 L131.089311,8.22345037 C130.844781,7.72824502 131.047993,7.12857094 131.543199,6.88404082 C131.785527,6.76438004 132.065972,6.74789906 132.320648,6.83835216 Z" id="Path-6" fill="#E56464" fill-rule="nonzero"></path>
                                </g>
                            </g>
                        </g>
                    </g>
                    <g id="Apple-Headphones-Clipped">
                        <mask id="mask-4" fill="white">
                            <use xlink:href="#path-3"></use>
                        </mask>
                        <g id="path-2"></g>
                        <g id="Apple-Headphones" mask="url(#mask-4)">
                            <g transform="translate(62.000000, 194.000000)" id="Group">
                                <g>
                                    <path d="M17,46 C17.9187541,52.9267822 14.2520874,59.9267822 6,67 C-1,73 -8.23079055,84.4852022 33,94 C41.6666667,96 48.7841286,109.333333 54.3523859,134" id="Line" stroke="#FFFFFF" stroke-linecap="square"></path>
                                    <path d="M181.497244,289.5 C181.466728,285.323442 181.966732,282.156775 182.998694,280 C193.835242,257.351879 249.99917,267 271.999326,232 C277.153451,223.800312 326.999716,204 317.999652,159 C308.999588,114 368.000007,112 358.999943,84 C354.903888,71.2568065 367,46 367,46" id="Line-3" stroke="#FFFFFF" stroke-linecap="square"></path>
                                    <path d="M54,160 C56,192 123.76588,167.099819 129,200 C136,244 171.19896,249.471266 174,273 C174.92722,280.788644 176.260553,286.788644 178,291" id="Line-2" stroke="#FFFFFF" stroke-linecap="square"></path>
                                    <path d="M180.5,296.5 C180.5,308.166667 178.666667,317 175,323 C172.81598,326.573851 147.046057,346.221767 184,357 C200,361.666667 202.666667,377.666667 192,405" id="Line-4" stroke="#FFFFFF" stroke-linecap="square"></path>
                                    <g id="Mic" transform="translate(51.000000, 128.000000)">
                                        <g id="path-4-link" fill="#FFFFFF">
                                            <rect id="path-4" x="0" y="0" width="7" height="33" rx="2"></rect>
                                        </g>
                                        <rect id="Rectangle-path" stroke="#EEEDED" x="0.5" y="0.5" width="6" height="32" rx="2"></rect>
                                    </g>
                                    <g id="Earbud-R" transform="translate(352.000000, 0.000000)" fill-rule="nonzero">
                                        <path d="M16,46 C16,33 16,20 16,7 C16,2.70222139 8.38290268,-2 4,1 C-2.94683275,5.75495346 3,16 7,16 C11,16 10,11 13,13 C13,24 13,35 13,46 C13,46.5522847 13.4477153,47 14,47 L15,47 C15.5522847,47 16,46.5522847 16,46 Z" id="Path-4" stroke="#EEEDED" fill="#FFFFFF"></path>
                                        <rect id="Rectangle-4" fill="#333333" x="14" y="37" width="1" height="5"></rect>
                                    </g>
                                    <g id="Earbud-L" transform="translate(23.000000, 23.500000) scale(-1, 1) translate(-23.000000, -23.500000) translate(15.000000, 0.000000)" fill-rule="nonzero">
                                        <path d="M16,46 C16,33 16,20 16,7 C16,2.70222139 8.38290268,-2 4,1 C-2.94683275,5.75495346 3,16 7,16 C11,16 10,11 13,13 C13,24 13,35 13,46 C13,46.5522847 13.4477153,47 14,47 L15,47 C15.5522847,47 16,46.5522847 16,46 Z" id="Path-4" stroke="#EEEDED" fill="#FFFFFF"></path>
                                        <rect id="Rectangle-4" fill="#333333" x="14" y="37" width="1" height="5"></rect>
                                    </g>
                                </g>
                            </g>
                        </g>
                    </g>
                    <g id="Sunglasses-Clipped">
                        <mask id="mask-6" fill="white">
                            <use xlink:href="#path-5"></use>
                        </mask>
                        <g id="path-2"></g>
                        <g id="Sunglasses" mask="url(#mask-6)">
                            <g transform="translate(113.000000, 172.000000)" id="Group">
                                <g>
                                    <g id="Path-5">
                                        <g id="path-5-link" fill="#FFFFFF">
                                            <path d="M2.48689958e-15,7 C32.0659237,2.33333333 55.399257,6.80011603e-15 70,0 C94.7655522,-8.74300632e-15 115.234448,7 140,7 C164.185176,7 185.814824,5.82867088e-15 210,0 C224.987661,-2.91433544e-15 248.320994,2.33333333 280,7 C280,6.97102779 280,11.6376945 280,21 C273,21 273,35 273,49 C273,77 252,105 217,105 C196,105 154,77 154,35 C152.133333,30.3333333 147.466667,28 140,28 C133,28 128.333333,30.3333333 126,35 C126,77 84,105 63,105 C28,105 7,78.4 7,49 C7,35 7,21 2.4796408e-15,21 C-8.28964757e-16,12.1333333 -8.26545166e-16,7.46666667 2.48689958e-15,7 Z" id="path-5"></path>
                                        </g>
                                        <path d="M279.5,7.4318076 C279.642208,7.45271164 279.784585,7.47366298 279.927131,7.4946616 L280.5,7.57905153 L280.5,6.99988398 C279.5,6.99995645 279.5,6.99995645 279.5,7.00018076 L279.5,7.20924349 C279.5,7.30979729 279.5,7.37012572 279.5,7.43180613 L279.5,7.4318076 Z M279.5,20.5215355 C279.5,20.67698 279.5,20.8364106 279.5,21 L280,20.5 C279.829882,20.5 279.663233,20.5071917 279.5,20.5215355 Z M0.5,20.5215355 C0.33676673,20.5071917 0.170117558,20.5 -5.80118249e-17,20.5 L0.5,21 C0.5,20.8361958 0.5,20.6767724 0.5,20.5215355 Z M0.5,7.43256299 C0.5,7.2487365 0.5,7.1735341 0.5,7 L2.43998998e-15,7 L0.0720081874,7.49478765 C0.214845599,7.47400002 0.357509537,7.45325873 0.5,7.43256378 L0.5,7.43256299 Z M0.5,7.43256378 C32.3235243,2.81059586 55.4941436,0.5 70,0.5 C80.2854085,0.5 87.9852347,1.37292808 104.923535,3.99411859 C121.911071,6.62292808 129.647448,7.5 140,7.5 C150.110581,7.5 157.870352,6.62302374 175.075518,3.99426412 C192.231471,1.37302374 199.956268,0.5 210,0.5 C224.890306,0.5 248.060578,2.81032233 279.5,7.4318076 C279.5,7.524312 279.5,7.61985884 279.5,7.85870313 L279.5,10.4782708 C279.5,14.4613242 279.5,14.5625842 279.5,20.5215355 C276.231435,20.8087536 274.332498,23.9636337 273.381803,29.6678005 C272.646248,34.0811292 272.5,38.4685767 272.5,49 C272.5,79.2785563 249.380343,104.5 217,104.5 C206.115833,104.5 190.458799,97.0442699 177.966159,85.3844724 C163.295745,71.692086 154.5,54.1005957 154.5,35 L154.464238,34.8143047 C152.510285,29.9294225 147.65144,27.5 140,27.5 C132.825026,27.5 127.979635,29.9226952 125.552786,34.7763932 L125.5,34.881966 L125.5,35 C125.5,54.1005957 116.704255,71.692086 102.033841,85.3844724 C89.5412007,97.0442699 73.8841674,104.5 63,104.5 C30.1825964,104.5 7.5,80.1677603 7.5,49 C7.5,38.4685767 7.35375175,34.0811292 6.61819696,29.6678005 C5.66750249,23.9636337 3.76856454,20.8087536 0.5,20.5215355 C0.5,14.8721213 0.5,14.7673573 0.5,10.85 L0.5,8.1375 C0.5,7.77727113 0.5,7.57315034 0.5,7.43256299 L0.5,7.43256378 Z" id="Shape" stroke="#E4E3E3"></path>
                                    </g>
                                    <ellipse id="Oval-5" fill="#E56464" cx="10.5" cy="13.65" rx="7" ry="1.75"></ellipse>
                                    <ellipse id="Oval-5" fill="#E56464" cx="269.5" cy="13.65" rx="7" ry="1.75"></ellipse>
                                    <g id="Path-3" transform="translate(10.000000, 7.000000)" fill="#E56464">
                                        <g id="path-6-link">
                                            <path d="M52.3105191,0.00739264 C79.514969,-0.37303958 111.810519,13.9950471 111.810519,27.9690922 C111.810519,55.9690922 80.3105191,91.6690922 52.3105191,94.469092 C6.8105191,94.469092 0.5105191,55.9690922 0.5000495,40.1487579 C0.4827242,13.9690948 4.9928321,0.6690922 52.3105191,0.00739264 Z" id="path-6"></path>
                                        </g>
                                        <g id="path-6-link" fill-rule="nonzero">
                                            <path d="M52.3105191,0.00739264 C79.514969,-0.37303958 111.810519,13.9950471 111.810519,27.9690922 C111.810519,55.9690922 80.3105191,91.6690922 52.3105191,94.469092 C6.8105191,94.469092 0.5105191,55.9690922 0.5000495,40.1487579 C0.4827242,13.9690948 4.9928321,0.6690922 52.3105191,0.00739264 Z" id="path-6"></path>
                                        </g>
                                    </g>
                                    <g id="Path-3" transform="translate(213.310520, 54.500000) scale(-1, 1) translate(-213.310520, -54.500000) translate(157.310520, 7.000000)" fill="#E56464">
                                        <g id="path-8-link">
                                            <path d="M52.310519,0.00739264 C79.514969,-0.37303958 111.810519,13.9950471 111.810519,27.9690922 C111.810519,55.9690922 80.310519,91.6690922 52.310519,94.469092 C6.810519,94.469092 0.510519,55.9690922 0.500049,40.1487579 C0.482724,13.9690948 4.992832,0.6690922 52.310519,0.00739264 Z" id="path-8"></path>
                                        </g>
                                        <g id="path-8-link" fill-rule="nonzero">
                                            <path d="M52.310519,0.00739264 C79.514969,-0.37303958 111.810519,13.9950471 111.810519,27.9690922 C111.810519,55.9690922 80.310519,91.6690922 52.310519,94.469092 C6.810519,94.469092 0.510519,55.9690922 0.500049,40.1487579 C0.482724,13.9690948 4.992832,0.6690922 52.310519,0.00739264 Z" id="path-8"></path>
                                        </g>
                                    </g>
                                </g>
                            </g>
                        </g>
                    </g>
                    <g id="Hat-Clipped">
                        <mask id="mask-8" fill="white">
                            <use xlink:href="#path-7"></use>
                        </mask>
                        <g id="path-2"></g>
                        <g id="Hat" mask="url(#mask-8)">
                            <g transform="translate(61.000000, -24.000000)" id="Group">
                                <g>
                                    <path d="M54.0056759,159.7 L329.994425,159.7 L329.994425,159.699999 C331.098994,159.699999 331.994424,158.804569 331.994424,157.7 C331.994424,157.696271 331.994413,157.692541 331.994393,157.688812 C331.407449,52.7658908 284.742652,0.536286742 192,1 C99.2626403,1.4636868 52.5978764,53.6932259 52.0057083,157.688617 L52.0057138,157.688617 C51.9994243,158.793166 52.8897392,159.693678 53.9942878,159.699968 C53.9980838,159.699989 54.0018798,159.7 54.0056759,159.7 Z" id="Path-7" fill="#FFFFFF" fill-rule="nonzero"></path>
                                    <path d="M48.0142599,140.225297 C18.4639435,143.297355 2.53287935,147.222256 0.221067638,152 C-2.10229113,156.801608 13.8877361,159.459071 48.1911492,159.972389 L48.1911493,159.972383 C49.2955917,159.98891 50.2043168,159.10698 50.2208438,158.002537 C50.220993,157.992563 50.2210676,157.982588 50.2210676,157.972613 L50.2210676,142.214593 L50.2210847,142.214593 C50.2210847,141.110014 49.3256466,140.214576 48.2210676,140.214576 C48.1519929,140.214576 48.0829645,140.218154 48.0142599,140.225297 Z" id="Path-8" fill="#FFFFFF" fill-rule="nonzero"></path>
                                    <path d="M59,156.2 L325,156.2 C329.666667,145.6 285.333333,140.533333 192,141 C98.6666667,141.466667 54.3333333,146.533333 59,156.2 Z" id="Path-7" fill="#E56464" fill-rule="nonzero"></path>
                                </g>
                            </g>
                        </g>
                    </g>
                </g>
            </g>
        </g>
    </g>
</svg>